<svg xmlns="http://www.w3.org/2000/svg" width="20" height="20" viewBox="0 0 61 60" fill="none">
  <g clip-path="url(#insights-clip)">
    <mask id="insights-mask" width="61" height="60" x="0" y="0" maskUnits="userSpaceOnUse" style="mask-type:luminance">
      <path fill="#fff" d="M60.607 0h-60v60h60z"></path>
    </mask>
    <g fill="currentColor" mask="url(#insights-mask)">
      <path d="M53.107 20c-3.625 0-5.65 3.6-4.825 6.275l-8.875 8.9c-.75-.225-1.85-.225-2.6 0L30.432 28.8c.85-2.675-1.175-6.3-4.825-6.3-3.625 0-5.675 3.6-4.825 6.3l-11.4 11.375c-2.675-.825-6.275 1.2-6.275 4.825 0 2.75 2.25 5 5 5 3.625 0 5.65-3.6 4.825-6.275l11.375-11.4c.75.225 1.85.225 2.6 0l6.375 6.375c-.85 2.675 1.175 6.3 4.825 6.3 3.625 0 5.675-3.6 4.825-6.3l8.9-8.875c2.675.825 6.275-1.2 6.275-4.825 0-2.75-2.25-5-5-5"></path>
      <path d="m38.107 22.5 2.35-5.175L45.607 15l-5.15-2.325-2.35-5.175-2.3 5.175-5.2 2.325 5.2 2.325zM9.357 27.5l1.25-5 5-1.25-5-1.25-1.25-5-1.25 5-5 1.25 5 1.25z"></path>
    </g>
  </g>
  <defs>
    <clipPath id="insights-clip">
      <path fill="#fff" d="M.607 0h60v60h-60z"></path>
    </clipPath>
  </defs>
</svg>
