<svg xmlns="http://www.w3.org/2000/svg" width="64" height="64" fill="none" viewBox="0 0 64 64" id="voice">
  <path fill="#FA1228" fill-rule="evenodd" d="M49.9502 3.55654C49.7432 2.64607 48.9337 2 48 2C47.0663 2 46.2568 2.64607 46.0498 3.55654L44.9432 8.42294C44.4314 10.6738 42.6738 12.4314 40.4229 12.9432L35.5565 14.0498C34.6461 14.2568 34 15.0663 34 16C34 16.9337 34.6461 17.7432 35.5565 17.9502L40.4229 19.0568C42.6738 19.5686 44.4314 21.3262 44.9432 23.5771L46.0498 28.4435C46.2568 29.3539 47.0663 30 48 30C48.9337 30 49.7432 29.3539 49.9502 28.4435L51.0568 23.5771C51.5686 21.3262 53.3262 19.5686 55.5771 19.0568L60.4435 17.9502C61.3539 17.7432 62 16.9337 62 16C62 15.0663 61.3539 14.2568 60.4435 14.0498L55.5771 12.9432C53.3262 12.4314 51.5686 10.6738 51.0568 8.42294L49.9502 3.55654Z" clip-rule="evenodd"></path>
  <path fill="#EBEBED" d="M22 16C23.1046 16 24 16.8954 24 18V60C24 61.1046 23.1046 62 22 62 20.8954 62 20 61.1046 20 60V18C20 16.8954 20.8954 16 22 16zM6 23C6 21.8954 5.10457 21 4 21 2.89543 21 2 21.8954 2 23V55C2 56.1046 2.89543 57 4 57 5.10457 57 6 56.1046 6 55L6 23zM15 27C15 25.8954 14.1046 25 13 25 11.8954 25 11 25.8954 11 27L11 51C11 52.1046 11.8954 53 13 53 14.1046 53 15 52.1046 15 51L15 27zM33 24C33 22.8954 32.1046 22 31 22 29.8954 22 29 22.8954 29 24L29 54C29 55.1046 29.8954 56 31 56 32.1046 56 33 55.1046 33 54L33 24zM40 29C41.1046 29 42 29.8954 42 31V47C42 48.1046 41.1046 49 40 49 38.8954 49 38 48.1046 38 47V31C38 29.8954 38.8954 29 40 29z"></path>
</svg>
